#tb 0: 1/25
#media_type 0: video
#codec_id 0: rawvideo
#dimensions 0: 352x288
#sar 0: 0/1
0,          0,          0,        1,   811008, 0xc5f7e6ba
0,          1,          1,        1,   811008, 0x266955bf
0,          2,          2,        1,   811008, 0x55360c6e
